


<svg width="60" height="60" viewBox="0 0 60 60" fill="none" xmlns="http://www.w3.org/2000/svg">
<path d="M49.3546 3.51562C48.0743 3.51562 46.8741 3.86121 45.839 4.46156V1.75781C45.839 0.787031 45.0519 0 44.0812 0H15.9562C14.9853 0 14.1982 0.787031 14.1982 1.75781V4.48301C13.1549 3.8693 11.941 3.51562 10.6454 3.51562C6.76842 3.51562 3.6142 6.66984 3.6142 10.5469C3.6142 13.5041 4.49052 16.3615 6.14838 18.8102C8.97072 22.9789 12.4511 24.0607 15.331 25.2127C16.9915 29.348 20.3495 32.6252 24.5384 34.1769L23.2422 42.4219H22.9874C20.0796 42.4219 17.714 44.7875 17.714 47.6953V56.4844H15.9562C14.9854 56.4844 14.1983 57.2714 14.1983 58.2422C14.1983 59.213 14.9854 60 15.9562 60H44.0812C45.0519 60 45.839 59.213 45.839 58.2422C45.839 57.2714 45.0519 56.4844 44.0812 56.4844H42.3233V47.6953C42.3233 44.7875 39.9577 42.4219 37.0499 42.4219H36.7951L35.499 34.177C39.694 32.623 43.0558 29.3386 44.7138 25.1948C47.4344 24.1066 51.0005 23.0217 53.8518 18.8102C55.5096 16.3615 56.386 13.504 56.386 10.5469C56.3858 6.66984 53.2316 3.51562 49.3546 3.51562ZM14.1852 20.968C9.8992 19.2536 7.12982 15.1631 7.12982 10.5469C7.12982 8.60836 8.70693 7.03125 10.6454 7.03125C12.584 7.03125 14.1611 8.60836 14.1611 10.5469C14.1611 10.6705 14.1741 10.791 14.1983 10.9073V19.3359C14.1983 19.9009 14.2287 20.4588 14.2868 21.0087L14.1852 20.968ZM38.8077 56.4844H21.2296V52.9688H38.8077V56.4844ZM37.0499 45.9375C38.0192 45.9375 38.8077 46.7261 38.8077 47.6953V49.4531H21.2296V47.6953C21.2296 46.7261 22.0181 45.9375 22.9874 45.9375C23.9411 45.9375 34.8134 45.9375 37.0499 45.9375ZM26.8009 42.4219L27.9641 35.023C28.6368 35.1107 29.3224 35.1562 30.0187 35.1562C30.7149 35.1562 31.4005 35.1105 32.0732 35.023L33.2364 42.4219H26.8009ZM42.3233 19.3359C42.3233 26.1207 36.8035 31.6406 30.0187 31.6406C23.2338 31.6406 17.714 26.1207 17.714 19.3359V10.5469H42.3233V19.3359ZM42.3233 7.03125H17.714V3.51562H42.3233V7.03125ZM45.8147 20.968L45.7522 20.993C45.8092 20.4483 45.8388 19.8955 45.8388 19.3359V10.5469C45.839 8.60836 47.4161 7.03125 49.3546 7.03125C51.2931 7.03125 52.8702 8.60836 52.8702 10.5469C52.8702 15.1631 50.1008 19.2537 45.8147 20.968Z" fill="#242424"/>
</svg>


<svg width="61" height="60" viewBox="0 0 61 60" fill="none" xmlns="http://www.w3.org/2000/svg">
<g clip-path="url(#clip0_0_199)">
<path d="M57.1194 21.2611C56.3276 18.8096 56.6651 15.1295 54.6073 12.2881C52.5333 9.42425 48.9262 8.61027 46.8894 7.12058C44.874 5.6466 42.999 2.43906 39.6089 1.33281C36.3144 0.25773 32.9455 1.7166 30.3333 1.7166C27.7216 1.7166 24.3529 0.257378 21.0578 1.33269C17.6683 2.43871 15.7918 5.64695 13.7777 7.12023C11.7431 8.60816 8.13323 9.42437 6.05959 12.2877C4.00354 15.1268 4.33764 18.8153 3.54733 21.261C2.79522 23.5887 0.333344 26.3823 0.333344 30.0002C0.333344 33.6202 2.79241 36.403 3.54733 38.7392C4.33905 41.1907 4.00155 44.8708 6.05936 47.7122C8.13323 50.5762 11.7403 51.39 13.7773 52.8798C15.7924 54.3536 17.6677 57.5614 21.0578 58.6675C24.3501 59.7419 27.7243 58.2837 30.3333 58.2837C32.9388 58.2837 36.3208 59.7403 39.6089 58.6676C42.9985 57.5616 44.8739 54.3541 46.889 52.8801C48.9236 51.3921 52.5335 50.5759 54.6071 47.7126C56.6633 44.8734 56.3289 41.1852 57.1194 38.7393C57.8715 36.4115 60.3333 33.6178 60.3333 30.0002C60.3333 26.3803 57.8749 23.5983 57.1194 21.2611ZM52.6591 37.2979C51.7362 40.1543 51.978 43.3511 50.8108 44.9629C49.6279 46.5961 46.5202 47.3421 44.1222 49.0962C41.7505 50.8307 40.0882 53.5803 38.1548 54.2111C36.3257 54.808 33.3449 53.596 30.3335 53.596C27.2999 53.596 24.3499 54.8106 22.512 54.2111C20.5789 53.5803 18.9189 50.8326 16.5446 49.0961C14.1608 47.3527 11.0354 46.5913 9.85588 44.9627C8.69245 43.3562 8.92506 40.1373 8.00784 37.298C7.10877 34.5161 5.02084 32.1073 5.02084 30.0002C5.02084 27.8909 7.1069 25.4904 8.0076 22.7024C8.93045 19.8461 8.68869 16.6491 9.85588 15.0374C11.0381 13.4052 14.1481 12.6568 16.5446 10.9041C18.9239 9.16398 20.5757 6.42097 22.5118 5.78921C24.3393 5.19296 27.3298 6.40433 30.3332 6.40433C33.3722 6.40433 36.3149 5.18886 38.1547 5.78921C40.0876 6.41992 41.7489 9.16867 44.1222 10.9042C46.5057 12.6476 49.6313 13.409 50.8108 15.0375C51.9745 16.6443 51.7406 19.8599 52.6589 22.7022V22.7023C53.5579 25.4842 55.6458 27.893 55.6458 30.0002C55.6458 32.1094 53.5598 34.5099 52.6591 37.2979ZM41.1314 22.4773C42.0467 23.3927 42.0467 24.8766 41.1314 25.7918L29.4002 37.523C28.4848 38.4384 27.0008 38.4382 26.0855 37.523L19.5355 30.9729C18.6201 30.0576 18.62 28.5736 19.5353 27.6584C20.4507 26.7432 21.9349 26.743 22.8499 27.6584L27.7428 32.5512L37.8166 22.4774C38.7319 21.5621 40.216 21.5621 41.1314 22.4773Z" fill="#242424"/>
</g>
<defs>
<clipPath id="clip0_0_199">
<rect width="60" height="60" fill="white" transform="translate(0.333344)"/>
</clipPath>
</defs>
</svg>

<svg width="61" height="56" viewBox="0 0 61 56" fill="none" xmlns="http://www.w3.org/2000/svg">
<path d="M56.0146 29.102V1.77976C56.0146 0.805015 55.2243 0.0147705 54.2496 0.0147705H6.96176C5.98701 0.0147705 5.19677 0.805015 5.19677 1.77976V31.2801C4.34534 31.4042 3.51297 31.7347 2.77661 32.2814C0.4553 33.9274 -0.0937288 37.6111 1.8507 39.8828L9.80057 49.5205C14.7216 55.2799 19.9491 55.9855 27.7205 55.9855C34.3895 55.9855 37.371 56.015 43.1831 54.6906L48.8426 53.337C49.7603 54.6185 51.2171 55.4486 52.8549 55.4486H55.6429C58.413 55.4486 60.6666 53.0745 60.6666 50.1562V34.3785C60.6667 31.5921 58.6116 29.3032 56.0146 29.102ZM48.0813 32.7327L45.7296 31.5383C41.863 29.5866 37.3925 29.5143 33.4648 31.3404C32.3933 31.7619 30.0561 33.176 28.8437 33.1287H20.6834C17.9766 33.1287 15.7744 35.3308 15.7744 38.0377V39.3249C15.7592 39.3089 15.7433 39.2937 15.7283 39.2774L9.90094 32.9521C9.54829 32.5693 9.15211 32.249 8.72687 31.992V14.4811H23.1707V20.9511C23.1707 21.9258 23.961 22.7161 24.9357 22.7161H36.0729C37.0477 22.7161 37.8379 21.9258 37.8379 20.9511V14.4811H52.4847V29.1019C50.4225 29.2612 48.7029 30.7365 48.0813 32.7327ZM26.7006 14.4811H34.3078V19.1861H26.7006V14.4811ZM52.4846 10.9511H37.8379V3.54475H52.4847V10.9511H52.4846ZM34.3079 3.54475V10.9512H26.7007V3.54475H34.3079ZM23.1706 3.54475V10.9512H8.72675V3.54475H23.1706ZM42.3639 51.2569C36.9948 52.4866 33.7612 52.4368 27.7838 52.4368C20.4885 52.4368 16.9636 52.3189 12.5238 47.2741L4.57396 37.6365C3.19115 35.8358 5.69579 33.7102 7.30475 35.3436L13.1322 41.6691C14.6723 43.2942 16.6104 44.1886 18.9991 44.2412H35.1556C36.1303 44.2412 36.9206 43.4509 36.9206 42.4762C36.9206 41.5014 36.1303 40.7112 35.1556 40.7112H19.3042V38.0375C19.3042 37.2771 19.9228 36.6584 20.6833 36.6584H28.8436C30.682 36.7901 33.3355 35.255 34.953 34.5411C37.8946 33.1734 41.2429 33.2275 44.135 34.6873L47.8314 36.5648V49.949L42.3639 51.2569ZM57.1368 50.1561C57.1368 51.1279 56.4667 51.9185 55.643 51.9185H52.855C52.0314 51.9185 51.3614 51.1279 51.3614 50.1561V34.3785C51.3614 33.4067 52.0315 32.616 52.855 32.616H55.643C56.4667 32.616 57.1368 33.4066 57.1368 34.3785V50.1561Z" fill="#242424"/>
</svg>

<svg width="60" height="60" viewBox="0 0 60 60" fill="none" xmlns="http://www.w3.org/2000/svg">
<g clip-path="url(#clip0_0_213)">
<path d="M54.6936 23.9628C54.2992 10.6825 43.3742 0 29.9999 0C16.6257 0 5.70065 10.6825 5.30618 23.9628L3.52936 25.7396V37.7898L5.29406 39.5545V47.7647C5.29406 52.5652 9.19948 56.4706 13.9999 56.4706H16.1858C16.9143 58.5246 18.8758 60 21.1764 60H24.7058C27.0079 60 28.9705 58.5225 29.6978 56.4664C29.7987 56.4681 29.8997 56.4706 29.9999 56.4706C38.5221 56.4706 45.6527 50.3981 47.2922 42.3529H51.9074L56.4705 37.7898V25.7396L54.6936 23.9628ZM29.9999 3.52941C40.4742 3.52941 49.1954 11.174 50.8807 21.1765H47.2922C45.6527 13.1313 38.5221 7.05882 29.9999 7.05882C21.4778 7.05882 14.3472 13.1313 12.7077 21.1765H9.11924C10.8045 11.174 19.5257 3.52941 29.9999 3.52941ZM43.6709 21.1765C37.9663 21.1594 33.9369 21.5068 30.6148 16.6506L29.0016 14.2926L27.6152 16.7907C25.5952 20.4306 22.8749 21.1765 19.4117 21.1765H16.329C17.9002 15.0944 23.4337 10.5882 29.9999 10.5882C36.5662 10.5882 42.0997 15.0944 43.6709 21.1765ZM12.3529 38.8235H9.55442L7.05877 36.3279V27.2015L9.55442 24.7059H12.3529V38.8235ZM8.82348 47.7647V42.3529H12.7043C13.3687 45.6441 14.9582 48.6652 17.313 51.0916C16.8194 51.6191 16.4322 52.2467 16.1858 52.9412H13.9999C11.1456 52.9412 8.82348 50.6191 8.82348 47.7647ZM24.7058 56.4706H21.1764C20.2032 56.4706 19.4117 55.6791 19.4117 54.7059C19.4117 53.7328 20.2032 52.9412 21.1764 52.9412H24.7058C25.6789 52.9412 26.4705 53.7328 26.4705 54.7059C26.4705 55.6791 25.6789 56.4706 24.7058 56.4706ZM44.1176 38.8235C44.1176 46.608 37.7844 52.9412 29.9999 52.9412C29.8988 52.9412 29.7968 52.9392 29.6949 52.9368C28.9652 50.8851 27.0048 49.4118 24.7058 49.4118C21.0823 49.4198 21.1401 49.3936 20.6884 49.4352C17.6247 46.7498 15.8823 42.9248 15.8823 38.8235V24.7059H19.4117C22.5349 24.7059 26.3384 24.1909 29.2827 20.6076C33.1674 24.6786 37.9147 24.7059 42.1762 24.7059H44.1176V38.8235ZM52.9411 36.3279L50.4455 38.8235H47.647V24.7059H50.4455L52.9411 27.2015V36.3279Z" fill="#242424"/>
</g>
<defs>
<clipPath id="clip0_0_213">
<rect width="60" height="60" fill="white"/>
</clipPath>
</defs>
</svg>

<svg width="28" height="28" viewBox="0 0 28 28" fill="none" xmlns="http://www.w3.org/2000/svg">
<path d="M8.16665 3.5C4.94548 3.5 2.33331 6.08533 2.33331 9.275C2.33331 11.8498 3.35415 17.9608 13.4026 24.1383C13.5826 24.2479 13.7893 24.3058 14 24.3058C14.2107 24.3058 14.4173 24.2479 14.5973 24.1383C24.6458 17.9608 25.6666 11.8498 25.6666 9.275C25.6666 6.08533 23.0545 3.5 19.8333 3.5C16.6121 3.5 14 7 14 7C14 7 11.3878 3.5 8.16665 3.5Z" stroke="black" stroke-width="2" stroke-linecap="round" stroke-linejoin="round"/>
</svg>


<svg width="26" height="23" viewBox="0 0 26 23" fill="none" xmlns="http://www.w3.org/2000/svg">
<path d="M24.2356 16.1926H7.95237L8.76995 14.5273L22.3543 14.5027C22.8137 14.5027 23.2074 14.1746 23.2895 13.7207L25.1707 3.19062C25.2199 2.91445 25.1461 2.63008 24.9656 2.41406C24.8765 2.30775 24.7652 2.22211 24.6396 2.16309C24.514 2.10407 24.3771 2.07308 24.2383 2.07227L6.95706 2.01484L6.8094 1.32031C6.71643 0.877344 6.31721 0.554688 5.86331 0.554688H1.6387C1.3827 0.554688 1.13719 0.656381 0.956172 0.837398C0.775156 1.01841 0.673462 1.26393 0.673462 1.51992C0.673462 1.77592 0.775156 2.02143 0.956172 2.20245C1.13719 2.38346 1.3827 2.48516 1.6387 2.48516H5.08127L5.72659 5.55312L7.31526 13.2449L5.26995 16.5836C5.16373 16.727 5.09975 16.8972 5.08526 17.075C5.07076 17.2528 5.10632 17.4312 5.18791 17.5898C5.35198 17.9152 5.68284 18.1203 6.04924 18.1203H7.76643C7.40035 18.6065 7.20261 19.1988 7.20315 19.8074C7.20315 21.3551 8.46096 22.6129 10.0086 22.6129C11.5563 22.6129 12.8141 21.3551 12.8141 19.8074C12.8141 19.1977 12.6117 18.6043 12.2508 18.1203H16.6559C16.2898 18.6065 16.0921 19.1988 16.0926 19.8074C16.0926 21.3551 17.3504 22.6129 18.8981 22.6129C20.4457 22.6129 21.7035 21.3551 21.7035 19.8074C21.7035 19.1977 21.5012 18.6043 21.1403 18.1203H24.2383C24.7688 18.1203 25.2035 17.6883 25.2035 17.1551C25.202 16.8994 25.0993 16.6546 24.9179 16.4743C24.7366 16.294 24.4913 16.1927 24.2356 16.1926ZM7.35901 3.91797L23.1035 3.96992L21.5613 12.6051L9.19377 12.627L7.35901 3.91797ZM10.0086 20.6715C9.53284 20.6715 9.14456 20.2832 9.14456 19.8074C9.14456 19.3316 9.53284 18.9434 10.0086 18.9434C10.4844 18.9434 10.8727 19.3316 10.8727 19.8074C10.8727 20.0366 10.7816 20.2564 10.6196 20.4184C10.4576 20.5805 10.2378 20.6715 10.0086 20.6715ZM18.8981 20.6715C18.4223 20.6715 18.034 20.2832 18.034 19.8074C18.034 19.3316 18.4223 18.9434 18.8981 18.9434C19.3739 18.9434 19.7621 19.3316 19.7621 19.8074C19.7621 20.0366 19.6711 20.2564 19.5091 20.4184C19.347 20.5805 19.1272 20.6715 18.8981 20.6715Z" fill="black"/>
</svg>

<svg width="24" height="20" viewBox="0 0 24 20" fill="none" xmlns="http://www.w3.org/2000/svg">
<path d="M21.3333 9.99996V4.16663H23.6667V11.1666H21.3333M21.3333 15.8333H23.6667V13.5H21.3333M9.66668 11.1666C12.7817 11.1666 19 12.73 19 15.8333V19.3333H0.333344V15.8333C0.333344 12.73 6.55168 11.1666 9.66668 11.1666ZM9.66668 0.666626C10.9044 0.666626 12.0913 1.15829 12.9665 2.03346C13.8417 2.90863 14.3333 4.09562 14.3333 5.33329C14.3333 6.57097 13.8417 7.75795 12.9665 8.63312C12.0913 9.50829 10.9044 9.99996 9.66668 9.99996C8.429 9.99996 7.24202 9.50829 6.36685 8.63312C5.49168 7.75795 5.00001 6.57097 5.00001 5.33329C5.00001 4.09562 5.49168 2.90863 6.36685 2.03346C7.24202 1.15829 8.429 0.666626 9.66668 0.666626ZM9.66668 13.3833C6.20168 13.3833 2.55001 15.0866 2.55001 15.8333V17.1166H16.7833V15.8333C16.7833 15.0866 13.1317 13.3833 9.66668 13.3833ZM9.66668 2.88329C9.0169 2.88329 8.39373 3.14142 7.93427 3.60088C7.4748 4.06034 7.21668 4.68351 7.21668 5.33329C7.21668 5.98307 7.4748 6.60624 7.93427 7.0657C8.39373 7.52517 9.0169 7.78329 9.66668 7.78329C10.3165 7.78329 10.9396 7.52517 11.3991 7.0657C11.8586 6.60624 12.1167 5.98307 12.1167 5.33329C12.1167 4.68351 11.8586 4.06034 11.3991 3.60088C10.9396 3.14142 10.3165 2.88329 9.66668 2.88329Z" fill="black"/>
</svg>

<svg width="28" height="28" viewBox="0 0 28 28" fill="none" xmlns="http://www.w3.org/2000/svg">
<path d="M24.5 24.5L19.2663 19.257M22.1667 12.25C22.1667 14.8801 21.1219 17.4024 19.2622 19.2622C17.4024 21.1219 14.8801 22.1667 12.25 22.1667C9.61995 22.1667 7.0976 21.1219 5.23787 19.2622C3.37813 17.4024 2.33334 14.8801 2.33334 12.25C2.33334 9.61998 3.37813 7.09763 5.23787 5.2379C7.0976 3.37816 9.61995 2.33337 12.25 2.33337C14.8801 2.33337 17.4024 3.37816 19.2622 5.2379C21.1219 7.09763 22.1667 9.61998 22.1667 12.25V12.25Z" stroke="black" stroke-width="2" stroke-linecap="round"/>
</svg>

